<svg width="102" height="102" viewBox="0 0 102 102" fill="none" xmlns="http://www.w3.org/2000/svg">
<path d="M51 0.166626C22.94 0.166626 0.166687 22.94 0.166687 51C0.166687 79.06 22.94 101.833 51 101.833C79.06 101.833 101.833 79.06 101.833 51C101.833 22.94 79.06 0.166626 51 0.166626ZM51 15.4166C59.4384 15.4166 66.25 22.2283 66.25 30.6666C66.25 39.105 59.4384 45.9166 51 45.9166C42.5617 45.9166 35.75 39.105 35.75 30.6666C35.75 22.2283 42.5617 15.4166 51 15.4166ZM51 87.6C38.2917 87.6 27.0575 81.0933 20.5 71.2316C20.6525 61.1158 40.8334 55.575 51 55.575C61.1158 55.575 81.3475 61.1158 81.5 71.2316C74.9425 81.0933 63.7084 87.6 51 87.6Z" fill="#D9D9D9"/>
</svg>
